<svg height="327pt" preserveAspectRatio="xMidYMid meet" viewBox="0 0 327 327" width="327pt" xmlns="http://www.w3.org/2000/svg"><g transform="matrix(.1 0 0 -.1 0 327)"><path d="m1617 2517c-9-17-19-44-22-59-4-16-12-29-19-29-26-4-74-7-111-8l-39-1 32-27c18-16 47-40 65-55l31-27-22-53c-27-65-29-86-6-64 8 9 21 16 27 16 7 0 23 9 37 20s28 20 31 20c8 0-11-97-45-225-31-115-31-115-39-135-3-8-13-42-22-75s-19-67-22-75-7-17-8-20-4-12-8-20c-3-8-11-33-18-55s-18-55-26-72c-7-18-13-36-14-40 0-5-7-15-14-23s-13-19-13-23c0-12-45-99-59-115-7-7-13-17-13-21 0-8-78-110-101-133-91-88-193-135-329-153-50-7-220-7-250 0-14 3-45 8-70 11s-76 12-115 20c-38 9-81 17-95 20-24 4-74 17-135 34-53 15-120 33-130 35-5 1-13 3-17 5-13 5-27 7-44 9-9 0-12 6-8 13s3 8-4 4c-14-9-4-36 13-36 7 0 15-4 17-8 2-5 30-28 63-53 33-24 66-49 75-56 84-65 197-143 209-143 6 0 11-4 11-8 0-5 18-17 40-27s40-23 40-28c0-6 3-7 6-4 4 4 19-2 33-12 32-22 242-107 255-103 5 2 21-2 35-7 14-6 53-13 86-15 33-3 60-5 60-6s15-2 33-3c17-1 32 0 32 3s15 5 33 4c17-1 55 5 82 12 28 8 57 16 67 18 48 12 160 86 198 130 14 16 37 47 52 70 15 22 32 47 38 54 6 6 8 12 4 12-3 0-2 6 3 13 6 6 16 30 23 52s15 45 19 50c3 6 7 15 8 20 1 6 7 28 12 50 10 42 22 97 26 130 2 11 4 20 5 20 2 0 3 15 15 140 4 44 8 91 10 105s4 54 4 89c1 92 8 72 15-44 8-120 15-201 21-235 2-14 7-45 10-69 4-24 17-87 30-139 79-311 259-468 545-478 124-4 215 12 345 62 99 39 245 113 245 126 0 4 5 8 11 8 15 0 139 84 286 195 69 52 120 95 112 95s-36-7-64-15c-27-9-59-17-70-20-11-2-30-6-42-9-13-4-32-8-43-10-11-3-24-7-28-10-5-3-19-7-33-9-13-3-69-14-124-26-55-11-120-23-145-26s-56-7-70-10c-48-10-225-7-287 4-161 30-271 104-373 252-46 66-107 188-148 297-50 128-189 619-179 629 3 2 30-10 61-28 56-30 80-33 58-7-6 7-17 32-25 56-17 48-16 50 69 120 43 35 45 34-56 35l-55 1-22 45c-12 25-22 51-22 58-2 26-20 21-34-10z"/><path d="m809 1715c-54-30-92-65-119-110-20-34-24-53-24-125 0-76 3-89 28-125 60-88 144-131 240-123 126 10 221 104 232 228 13 153-107 280-262 277-39-1-71-8-95-22z"/><path d="m2266 1719c-105-40-166-136-161-252 3-56 8-74 40-121 30-45 49-62 101-87 54-27 72-31 122-27 137 10 227 98 239 234 12 140-99 264-242 270-29 1-70-6-99-17z"/></g></svg>